<svg xmlns="http://www.w3.org/2000/svg" version="1.0" preserveAspectRatio="xMidYMid meet" viewBox="114 235.1 670 699.9">
  <g transform="translate(0.000000,1152.000000) scale(0.100000,-0.100000)" stroke="none">
    
    {/* Layer 1: The background-colored border (stroke) */}
    {/* This color adapts to the theme, creating a "cutout" effect. */}
    <path
      d="M4450 9154 c-30 -8 -83 -28 -117 -43 l-62 -29 -63 26 c-90 37 -229 43 -325 13 -73 -21 -169 -83 -196 -125 -15 -22 -20 -24 -47 -14 -17 5 -60 8 -95 6 -89 -5 -138 -40 -184 -131 -31 -60 -38 -67 -70 -73 -111 -18 -180 -85 -197 -194 -6 -36 -13 -45 -58 -74 -67 -43 -132 -115 -161 -179 -27 -58 -49 -179 -40 -215 4 -15 -5 -45 -26 -87 -30 -61 -31 -68 -25 -147 3 -46 5 -119 5 -164 0 -49 8 -112 20 -160 11 -43 24 -135 30 -202 12 -133 48 -342 87 -510 13 -57 24 -109 24 -116 0 -7 -16 -18 -35 -25 -19 -7 -46 -27 -59 -44 -41 -55 -49 -100 -43 -226 12 -220 36 -446 52 -496 9 -27 49 -115 88 -195 75 -151 108 -190 163 -190 13 0 24 -3 24 -7 0 -5 5 -37 11 -73 14 -89 68 -199 186 -375 140 -211 147 -238 82 -300 -92 -89 -139 -192 -141 -306 -1 -84 6 -113 53 -232 27 -66 39 -113 39 -146 0 -57 12 -48 -195 -158 -182 -98 -372 -181 -648 -285 -310 -116 -440 -172 -612 -264 -274 -149 -379 -233 -478 -384 -102 -158 -167 -307 -223 -510 -26 -95 -74 -319 -74 -347 0 -2 1508 -3 3350 -3 l3350 0 0 364 0 365 -82 54 c-196 129 -1271 777 -1633 984 -108 62 -106 62 -148 -4 -110 -177 -326 -348 -632 -499 -311 -153 -605 -231 -911 -241 -169 -6 -338 6 -386 27 -17 8 -9 9 34 4 94 -9 348 -6 428 6 351 52 612 137 930 301 185 96 283 165 400 279 97 95 150 176 150 231 0 43 -19 63 -150 149 -199 133 -220 173 -220 415 0 196 -12 238 -86 312 -49 49 -68 83 -46 83 22 0 104 -64 127 -98 44 -66 55 -122 55 -273 0 -76 5 -160 11 -188 15 -69 64 -122 209 -221 117 -80 150 -115 150 -158 0 -10 11 -24 25 -30 26 -12 343 -198 795 -467 341 -203 873 -529 933 -571 l47 -34 0 28 c0 16 -8 36 -17 44 -47 40 -1184 727 -1572 950 -150 85 -156 90 -180 141 -21 42 -39 61 -91 94 -128 84 -216 153 -235 185 -17 29 -20 54 -22 204 -1 143 -5 180 -22 229 -37 104 -96 170 -177 199 l-39 13 3 203 c2 144 6 210 16 229 7 14 16 43 20 63 7 36 7 37 37 26 53 -18 116 -5 155 33 34 33 131 182 172 264 60 121 96 326 97 555 0 164 0 165 -30 225 -24 49 -38 64 -72 80 -36 17 -42 24 -38 42 3 13 16 110 30 215 14 106 36 279 50 383 38 287 43 331 38 359 -3 15 4 48 17 79 17 38 23 72 24 127 0 103 -24 169 -85 233 -46 47 -49 54 -49 102 0 98 -48 198 -110 230 -18 10 -31 29 -43 69 -35 110 -118 187 -224 209 -58 12 -65 16 -91 58 -58 91 -147 140 -259 142 -54 1 -61 4 -109 47 -111 100 -254 150 -424 149 -58 0 -129 -7 -160 -15z m297 -49 c138 -32 272 -125 322 -222 32 -63 25 -62 -18 3 -125 186 -395 261 -646 179 -11 -3 -8 1 7 10 73 42 227 56 335 30z m-611 -40 c27 -8 58 -21 69 -29 14 -10 3 -9 -38 5 -116 39 -258 21 -353 -44 -59 -41 -132 -143 -140 -198 -4 -21 -10 -39 -14 -39 -10 0 5 70 25 115 28 70 130 159 214 190 49 18 176 18 237 0z m661 -71 c57 -27 135 -107 151 -154 6 -16 10 -30 8 -30 -2 0 -16 22 -33 48 -37 60 -106 117 -180 149 -32 13 -44 22 -28 18 17 -3 53 -17 82 -31z m-184 -1 c84 -26 172 -110 192 -183 3 -14 -7 -2 -24 26 -75 127 -216 180 -406 152 -67 -10 -23 9 49 21 60 10 123 5 189 -16z m-410 -23 c60 -9 146 -45 182 -74 11 -9 -7 -3 -40 13 -194 96 -430 37 -544 -136 -35 -53 -40 -50 -11 6 22 45 107 124 163 153 36 18 138 45 177 47 8 1 41 -3 73 -9z m-681 -65 c-51 -57 -65 -140 -38 -228 16 -55 11 -62 -10 -12 -31 74 -12 199 38 252 35 37 43 26 10 -12z m61 -74 c-16 -171 125 -274 289 -211 97 37 161 43 251 25 79 -16 153 -48 192 -82 31 -28 75 -83 75 -95 0 -6 -13 6 -29 26 -56 70 -126 110 -234 132 -81 17 -118 14 -235 -23 -104 -32 -162 -28 -229 13 -78 49 -115 148 -90 247 12 44 15 31 10 -32z m-179 -26 c-38 -123 26 -263 149 -327 46 -24 121 -28 258 -14 71 8 80 7 138 -19 109 -49 182 -156 197 -288 3 -28 1 -70 -4 -92 -10 -38 -10 -36 -11 32 -2 136 -58 253 -149 312 -69 44 -127 53 -230 35 -125 -22 -199 -3 -283 73 -57 52 -81 104 -87 191 -4 56 -1 82 13 112 24 53 28 46 9 -15z m1072 16 c59 -28 181 -128 169 -139 -2 -3 -27 16 -55 42 -145 135 -344 149 -520 35 -32 -21 -34 -21 -17 -2 25 28 113 75 172 90 77 19 175 9 251 -26z m699 -114 c86 -42 124 -73 163 -135 66 -103 78 -234 33 -353 -22 -58 -86 -140 -125 -161 -11 -6 2 14 31 45 73 80 97 146 97 267 1 114 -18 163 -90 241 -52 55 -78 72 -164 106 -30 12 -46 22 -35 22 11 1 52 -14 90 -32z m275 -84 c71 -106 93 -170 93 -273 1 -101 -24 -174 -80 -240 -36 -42 -116 -100 -137 -100 -6 0 -5 4 3 9 8 5 16 16 17 24 1 8 14 32 28 53 14 21 35 67 47 102 12 35 23 61 26 58 10 -10 -32 -121 -64 -168 -41 -59 -27 -62 33 -6 152 140 143 392 -21 593 -25 30 -45 58 -45 62 0 16 55 -47 100 -114z m-477 87 c176 -54 295 -196 305 -363 3 -59 0 -89 -13 -124 -22 -56 -76 -118 -126 -144 -60 -30 -70 -22 -13 11 96 55 134 123 134 241 0 53 -6 78 -35 137 -60 125 -158 203 -307 242 -51 13 -63 19 -42 19 18 1 61 -8 97 -19z m-593 -50 c45 -23 115 -98 134 -143 8 -19 19 -60 26 -91 22 -106 -25 -243 -116 -341 -51 -55 -49 -50 19 43 59 80 81 147 81 242 0 60 -5 86 -25 130 -45 97 -94 140 -203 176 l-41 13 45 -6 c25 -3 61 -13 80 -23z m1225 -65 c51 -91 68 -164 63 -260 -5 -100 -35 -167 -104 -237 -26 -27 -50 -48 -54 -48 -3 0 14 21 40 48 65 67 92 130 98 226 7 119 -26 232 -101 341 l-21 30 23 -20 c12 -11 38 -47 56 -80z m-2317 -81 c27 -53 104 -121 151 -134 45 -12 116 -13 159 -1 19 6 30 6 27 1 -3 -5 -22 -14 -43 -20 -165 -45 -329 80 -338 260 l-4 65 13 -65 c7 -36 23 -84 35 -106z m1495 85 c68 -79 93 -202 62 -305 -17 -57 -85 -158 -118 -176 -15 -8 -10 2 17 32 21 23 50 68 65 99 22 47 26 70 26 141 -1 106 -27 162 -112 240 -58 53 -58 53 -16 32 22 -12 57 -40 76 -63z m-1605 29 c-20 -88 9 -185 76 -257 24 -26 26 -31 9 -22 -28 14 -66 65 -87 115 -18 43 -21 141 -6 180 15 40 19 31 8 -16z m1788 -114 c59 -127 53 -236 -18 -342 -28 -41 -117 -102 -148 -101 -8 0 6 11 31 24 107 55 153 135 153 260 0 68 -5 90 -31 145 -16 36 -46 85 -66 108 -52 62 -45 67 10 7 25 -27 57 -73 69 -101z m-346 80 c117 -127 132 -321 35 -448 -31 -41 -126 -106 -155 -106 -8 0 12 15 45 34 71 39 118 96 140 168 38 131 -6 292 -104 375 -14 13 -21 23 -15 23 6 0 30 -21 54 -46z m-483 -66 c103 -38 192 -143 207 -244 6 -42 4 -38 -27 45 -44 120 -150 194 -302 211 l-60 7 62 2 c42 1 81 -6 120 -21z m956 -147 c1 -93 -24 -168 -74 -225 -23 -26 -54 -53 -69 -61 -20 -10 -11 3 30 43 96 96 121 222 76 377 -4 11 3 0 15 -24 14 -30 21 -64 22 -110z m-2074 39 c-76 -81 -94 -127 -94 -242 0 -65 -3 -94 -10 -87 -5 6 -10 49 -10 97 0 75 4 94 28 140 28 52 105 142 123 142 6 0 -11 -23 -37 -50z m1174 -110 c27 -55 32 -77 35 -155 2 -49 0 -100 -5 -112 -5 -15 -8 13 -9 80 0 120 -19 179 -85 267 l-41 55 36 -35 c21 -19 52 -64 69 -100z m1598 68 c42 -82 17 -256 -45 -307 -10 -9 -7 3 8 30 50 91 56 212 15 292 -11 21 -15 36 -9 32 6 -3 20 -24 31 -47z m-2600 -47 c18 -19 48 -40 66 -47 46 -20 145 -17 231 6 79 21 142 16 206 -17 43 -22 125 -103 146 -143 36 -71 30 -83 -9 -19 -92 150 -207 198 -371 154 -141 -38 -261 -1 -310 95 -11 22 -20 45 -20 52 1 7 7 -1 14 -17 7 -17 28 -46 47 -64z m-99 -56 c51 -94 145 -125 294 -95 78 15 156 1 213 -41 51 -36 54 -49 4 -15 -62 42 -127 51 -230 33 -106 -20 -146 -15 -215 27 -68 41 -99 97 -97 175 l2 56 6 -55 c4 -30 14 -68 23 -85z m1365 25 c-3 -36 -15 -87 -27 -115 -24 -56 -95 -155 -111 -155 -6 0 3 16 19 35 74 84 119 207 109 300 -4 40 -4 45 5 25 5 -14 8 -54 5 -90z m713 -2 c-13 -66 -39 -126 -64 -147 -8 -7 -1 12 15 43 16 30 35 82 41 116 5 33 13 59 16 56 2 -3 -1 -34 -8 -68z m-1315 38 c79 -33 157 -147 154 -225 -1 -19 -4 -14 -13 19 -33 118 -103 190 -206 211 l-35 7 33 1 c18 0 48 -5 67 -13z m1881 -97 c-15 -93 -84 -182 -178 -229 -34 -16 -68 -30 -77 -30 -9 0 7 11 34 24 104 50 183 136 206 226 15 60 24 66 15 9z m-2627 -141 c62 -33 144 -37 225 -13 27 8 74 14 105 14 l56 -1 -58 -9 c-31 -5 -81 -15 -109 -24 -59 -17 -128 -19 -177 -5 -70 20 -138 86 -156 150 -4 14 8 0 27 -30 25 -41 46 -61 87 -82z m504 119 c39 -17 94 -62 109 -91 7 -12 -8 -3 -36 22 -26 24 -66 52 -89 63 -48 21 -34 26 16 6z m2261 -97 c50 -30 81 -94 81 -165 0 -33 -5 -69 -12 -79 -8 -15 -9 -3 -5 52 4 59 1 78 -18 117 -12 26 -38 56 -58 70 -43 30 -33 34 12 5z m-2939 -89 c-40 -18 -73 -48 -93 -86 -6 -11 -12 -15 -12 -9 -1 38 86 114 130 114 8 0 -3 -9 -25 -19z m2895 -12 c35 -20 78 -75 67 -85 -3 -3 -13 9 -24 26 -24 42 -80 70 -140 70 -36 0 -44 3 -33 11 21 13 86 2 130 -22z m-2225 10 c17 0 47 -7 68 -15 50 -19 60 -18 54 6 -3 11 -3 20 -1 20 2 0 38 -17 79 -37 61 -30 79 -35 93 -26 15 9 26 6 58 -13 45 -28 54 -29 54 -10 0 12 15 8 63 -14 59 -28 66 -29 148 -21 64 6 96 14 131 35 25 14 52 24 61 20 8 -3 38 5 67 17 42 18 53 20 60 9 7 -11 21 -9 74 12 54 22 66 24 66 11 0 -11 7 -14 23 -10 61 16 107 19 107 8 0 -15 28 -14 83 5 42 14 48 14 71 -2 19 -12 38 -15 67 -11 29 4 60 -2 107 -19 37 -13 86 -31 108 -40 31 -11 45 -23 54 -47 7 -18 23 -48 36 -67 13 -19 39 -78 59 -130 l36 -95 -10 -111 c-19 -197 -17 -225 35 -349 53 -127 68 -169 78 -207 l6 -27 -39 14 c-22 7 -61 17 -88 21 -59 8 -72 15 -140 70 -86 70 -98 74 -230 74 -133 0 -332 -22 -409 -45 -60 -18 -81 -38 -98 -96 -7 -24 -24 -51 -37 -61 -23 -18 -29 -18 -123 -2 -99 17 -126 16 -274 -12 -26 -5 -38 -2 -58 17 -13 12 -24 31 -24 41 0 32 -29 77 -60 93 -101 52 -488 81 -588 44 -13 -5 -50 -34 -82 -65 -50 -47 -67 -57 -104 -61 l-45 -5 21 78 c46 179 48 199 36 342 -13 150 -5 243 33 353 34 101 64 151 114 198 26 24 44 49 41 56 -6 16 15 25 58 25 40 0 50 8 33 28 -10 13 -5 14 43 8 30 -4 69 -8 85 -7z m-580 -41 c-62 -31 -121 -95 -150 -161 -25 -54 -27 -68 -23 -153 2 -51 0 -88 -4 -81 -4 6 -8 55 -8 107 0 102 15 150 66 217 26 34 118 93 144 92 8 0 -3 -9 -25 -21z m2795 -70 c63 -64 91 -136 96 -243 l4 -80 -15 86 c-22 139 -68 222 -150 274 -25 15 -45 29 -45 31 0 2 14 -2 31 -8 16 -6 52 -33 79 -60z m-154 17 c47 -19 104 -62 104 -77 0 -7 -12 0 -27 14 -53 49 -91 62 -203 67 -79 4 -96 7 -70 12 50 11 152 2 196 -16z m-2456 5 c18 -6 5 -8 -46 -9 -39 -1 -91 -8 -116 -17 -63 -21 -126 -78 -154 -138 -13 -28 -24 -45 -24 -38 0 50 87 159 148 184 67 27 143 34 192 18z m2355 -52 c108 -27 231 -126 279 -224 15 -31 25 -58 23 -60 -3 -3 -15 17 -28 43 -30 64 -133 164 -200 196 -63 29 -139 46 -212 48 -48 2 -50 2 -17 9 38 8 93 4 155 -12z m-2385 -18 c0 -5 -18 -10 -39 -10 -57 0 -157 -55 -198 -108 -39 -52 -43 -47 -7 7 34 52 92 91 157 107 66 16 87 17 87 4z m2351 -60 c129 -40 234 -131 298 -257 45 -90 38 -90 -14 -1 -25 42 -67 99 -93 125 -58 59 -166 117 -244 133 -32 6 -58 13 -58 16 0 10 53 3 111 -16z m-2362 -10 c-81 -14 -160 -64 -210 -133 -31 -43 -38 -43 -15 2 20 38 90 99 140 122 22 10 61 18 86 18 l45 -1 -46 -8z m2430 -96 c68 -51 177 -166 204 -216 17 -31 16 -30 -15 7 -67 82 -175 188 -223 221 -27 19 -45 34 -38 34 6 0 38 -21 72 -46z m-57 -37 c48 -34 120 -93 160 -132 72 -69 178 -212 178 -241 0 -9 -24 20 -52 63 -84 125 -135 179 -258 270 -135 102 -137 103 -124 103 5 0 48 -28 96 -63z m-2423 10 c-109 -45 -168 -100 -215 -200 -13 -29 -24 -45 -24 -36 0 31 61 138 97 170 41 36 148 89 178 89 11 0 -5 -11 -36 -23z m-4 -43 c-53 -35 -141 -121 -167 -162 -11 -18 -23 -31 -25 -28 -22 22 177 216 221 216 6 0 -7 -12 -29 -26z m2469 -85 c58 -56 106 -97 106 -92 0 5 -3 13 -7 19 -14 17 31 -32 79 -88 45 -52 118 -163 118 -180 0 -25 -25 3 -81 93 -59 94 -91 134 -76 96 10 -25 1 -21 -39 21 l-36 37 37 -47 c21 -26 42 -45 48 -41 5 3 7 1 4 -5 -4 -5 8 -29 27 -51 51 -61 98 -148 94 -173 -3 -20 -7 -16 -27 22 -60 114 -220 328 -305 407 -61 57 -79 83 -57 83 5 0 57 -45 115 -101z m-2499 -44 c-42 -41 -78 -73 -80 -72 -6 2 -45 -55 -92 -132 -21 -34 -33 -48 -33 -35 0 40 121 211 141 198 4 -2 14 5 23 17 14 21 103 99 112 99 3 0 -29 -34 -71 -75z m2443 9 c95 -77 177 -179 286 -354 41 -67 59 -120 39 -120 -5 0 -27 32 -51 70 -68 110 -151 217 -250 322 -79 84 -109 128 -86 128 3 0 31 -21 62 -46z m-2417 -96 c-24 -23 -46 -36 -53 -32 -8 5 -9 2 -5 -10 4 -9 3 -15 -1 -12 -5 3 -41 -38 -82 -90 -40 -51 -75 -92 -78 -90 -16 17 178 263 197 251 5 -2 19 7 32 21 15 16 25 21 28 13 2 -7 -15 -30 -38 -51z m2440 -25 c135 -139 299 -370 299 -420 0 -13 -3 -23 -7 -23 -5 0 -35 42 -68 92 -71 110 -167 232 -259 329 -58 62 -83 109 -58 109 5 0 47 -39 93 -87z m-2391 -2 c0 -4 -17 -30 -38 -57 -41 -53 -148 -217 -178 -274 -17 -32 -19 -33 -22 -12 -3 17 24 64 89 160 51 75 102 149 113 164 21 27 36 35 36 19z m2502 -219 c113 -144 181 -260 172 -292 -4 -14 -10 -41 -13 -60 l-7 -35 -13 25 c-36 65 -159 226 -251 328 -79 88 -103 121 -107 150 l-6 37 49 -42 c65 -55 108 -101 189 -203 78 -98 92 -113 77 -84 -25 49 -138 190 -222 278 -64 67 -88 100 -84 111 9 23 107 -75 216 -213z m-2636 96 c-42 -56 -84 -118 -93 -135 -17 -34 -33 -43 -33 -19 0 24 187 272 198 261 2 -2 -31 -50 -72 -107z m115 13 c-61 -77 -215 -307 -184 -276 5 6 37 48 70 95 34 47 79 105 101 130 62 68 52 25 -12 -54 -30 -36 -80 -102 -111 -146 -31 -44 -61 -80 -66 -80 -42 0 60 195 175 334 22 27 42 43 44 36 3 -7 -5 -24 -17 -39z m22 -117 c-3 -17 -29 -61 -60 -100 -31 -38 -76 -99 -101 -136 -25 -38 -47 -68 -48 -68 -2 0 -4 13 -4 29 0 17 15 52 38 84 47 70 173 230 177 225 1 -1 1 -17 -2 -34z m2478 -174 c32 -38 76 -96 98 -129 23 -33 45 -63 51 -66 5 -3 10 -11 10 -17 0 -7 -7 -6 -17 3 -10 8 -35 23 -57 34 -21 11 -50 35 -64 55 -15 19 -44 56 -65 83 -32 38 -117 194 -117 214 0 6 89 -91 161 -177z m-2511 29 c-7 -24 -27 -69 -46 -99 -39 -64 -46 -92 -9 -37 28 41 42 50 24 15 -13 -26 -107 -131 -120 -136 -5 -2 -9 14 -9 35 0 27 10 54 33 89 42 65 131 183 135 179 2 -2 -2 -23 -8 -46z m2045 -59 c133 -65 193 -193 166 -357 -22 -136 -105 -249 -229 -310 -74 -37 -79 -38 -187 -38 -108 0 -113 1 -188 38 -96 48 -165 115 -209 204 -29 59 -33 79 -36 161 -4 83 -1 98 22 145 53 110 98 132 325 161 167 22 286 20 336 -4z m-1331 -29 c108 -22 131 -36 171 -106 35 -60 48 -142 36 -212 -45 -240 -264 -401 -493 -363 -90 16 -197 69 -244 123 -52 60 -95 156 -107 243 -10 69 -9 81 13 145 27 82 84 152 145 181 36 17 57 19 210 14 112 -4 204 -12 269 -25z m1777 -33 c17 -21 26 -38 21 -38 -18 0 -82 67 -82 85 0 15 3 15 15 5 9 -7 29 -30 46 -52z m-1259 -115 c35 -17 43 -33 57 -118 24 -135 90 -264 177 -345 25 -23 79 -58 121 -77 68 -33 86 -37 177 -41 155 -7 270 33 363 126 86 85 136 205 149 354 3 43 12 84 18 93 12 17 84 37 99 28 5 -3 7 -85 6 -182 -3 -152 -1 -180 14 -208 10 -18 22 -33 27 -33 5 0 14 19 20 43 50 192 87 249 176 267 114 24 166 -41 172 -219 4 -101 -13 -313 -27 -339 -4 -7 -20 47 -36 120 -15 73 -36 167 -46 210 -24 96 -24 118 -1 119 30 2 47 -2 65 -18 19 -18 22 -11 7 17 -15 28 -63 34 -105 14 -47 -22 -87 -72 -132 -162 -43 -86 -49 -141 -22 -194 33 -65 34 -108 5 -167 -36 -69 -47 -101 -38 -101 5 0 19 19 32 43 13 23 32 54 43 69 24 33 19 80 -19 162 -57 125 36 65 108 -69 60 -112 39 -195 -49 -195 -45 0 -103 -23 -103 -41 0 -5 13 -3 30 6 16 8 50 15 75 15 136 0 128 187 -13 341 -29 31 -52 62 -52 68 0 38 111 198 130 186 4 -3 11 -29 15 -58 4 -28 16 -90 26 -137 59 -271 62 -292 51 -349 -13 -73 -46 -143 -125 -266 -72 -112 -108 -141 -161 -131 -66 12 -68 23 -51 201 17 177 18 241 4 270 -7 15 -8 9 -7 -25 1 -25 0 -63 -1 -85 -3 -37 -4 -38 -12 -15 -7 21 -8 20 -4 -9 7 -48 -5 -132 -18 -124 -6 3 -7 1 -3 -6 4 -6 4 -37 0 -68 -7 -59 -16 -56 -28 11 -4 21 -9 36 -12 33 -3 -2 3 -37 12 -78 12 -55 14 -77 5 -91 -6 -10 -11 -30 -12 -45 0 -25 -2 -24 -15 12 -8 22 -19 44 -24 49 -6 6 -1 -16 10 -49 19 -53 20 -66 10 -114 -9 -38 -15 -50 -21 -40 -6 10 -9 2 -9 -23 0 -20 -4 -40 -10 -43 -5 -3 -14 -25 -21 -48 -6 -23 -16 -49 -23 -57 -7 -8 -21 -34 -31 -57 -10 -24 -22 -43 -26 -43 -5 0 -10 35 -12 78 l-3 77 -2 -95 c-2 -73 -6 -102 -19 -120 -18 -25 -18 -24 -24 60 l-5 85 -2 -92 c-2 -101 -7 -123 -28 -123 -8 0 -14 -6 -14 -14 0 -7 -7 -20 -17 -27 -15 -13 -16 -8 -10 66 3 47 2 68 -3 50 -4 -16 -8 -55 -9 -85 -1 -49 -17 -90 -35 -90 -3 0 -6 8 -7 18 -1 19 -4 11 -13 -30 -11 -49 -23 -30 -15 25 4 28 7 68 7 87 0 19 -7 -8 -15 -60 -10 -69 -20 -100 -35 -115 l-20 -20 6 33 c17 90 17 97 7 82 -6 -8 -13 -40 -17 -70 -7 -57 -20 -84 -35 -74 -5 3 -9 1 -9 -5 0 -5 -16 -27 -35 -48 -48 -53 -44 -30 11 47 24 36 52 90 61 120 9 30 18 61 21 69 3 8 1 12 -5 8 -6 -4 -13 -21 -17 -38 -3 -17 -19 -47 -35 -67 -15 -21 -34 -48 -41 -62 -7 -14 -20 -33 -29 -42 -30 -32 -46 -52 -57 -73 -6 -11 -16 -19 -22 -17 -7 1 -12 -4 -12 -12 0 -8 -12 -28 -26 -43 -20 -22 -24 -24 -19 -8 17 51 35 131 34 150 -1 11 -10 -15 -20 -58 -10 -42 -25 -90 -33 -105 -14 -26 -66 -82 -66 -70 0 3 15 39 34 79 38 82 54 130 38 114 -5 -5 -17 -32 -26 -60 -21 -62 -67 -147 -83 -153 -7 -2 5 36 27 84 22 48 39 88 37 90 -4 4 -62 -108 -76 -148 -10 -26 -51 -58 -51 -40 0 5 14 40 31 77 16 37 28 69 26 71 -2 2 -20 -33 -40 -79 -27 -63 -40 -82 -56 -82 -11 0 -23 -4 -27 -8 -7 -6 -44 -10 -44 -4 0 1 7 24 15 51 8 27 15 56 14 65 0 9 -10 -17 -21 -57 -19 -68 -22 -73 -45 -69 -13 2 -26 0 -29 -5 -3 -4 -28 -8 -55 -7 -37 2 -49 6 -50 18 -1 13 -2 13 -6 -1 -7 -27 -43 -23 -44 5 l-2 22 -4 -22 c-4 -21 -9 -22 -71 -18 -59 3 -133 16 -184 31 -16 5 -37 51 -57 124 -6 22 -10 27 -10 14 -1 -12 6 -41 14 -64 8 -24 13 -45 11 -48 -8 -7 -27 9 -36 32 -8 18 -9 19 -9 2 -1 -15 -4 -16 -16 -6 -8 7 -15 19 -15 26 0 7 -6 11 -13 8 -31 -12 -60 45 -90 181 -4 16 -5 14 -6 -6 0 -14 6 -48 14 -74 17 -58 14 -66 -10 -28 -10 15 -25 33 -34 39 -9 7 -20 44 -28 90 l-13 79 6 -68 5 -68 -29 29 c-30 30 -51 107 -53 193 -1 34 -1 34 -9 7 -5 -18 -3 -51 6 -89 8 -34 13 -64 11 -66 -2 -2 -15 12 -28 32 -13 19 -29 35 -35 35 -19 0 -34 25 -43 71 -7 37 -9 39 -10 14 -2 -29 -2 -29 -16 -11 -10 13 -16 47 -17 100 l-2 81 -5 -70 c-5 -62 -7 -68 -18 -48 -7 12 -14 43 -15 70 l-1 48 -6 -45 -7 -45 -14 30 c-8 17 -17 32 -20 35 -26 23 -50 68 -51 94 0 26 -2 28 -9 11 -7 -18 -8 -19 -15 -2 -4 9 -5 39 -1 65 l5 47 -13 -40 c-13 -39 -13 -40 -20 -13 -4 15 -15 29 -23 32 -12 5 -14 16 -10 49 3 23 3 34 0 25 -7 -26 -22 -22 -29 8 -6 23 -3 51 11 114 3 14 -1 7 -10 -14 -23 -58 -28 -57 -22 4 3 32 2 47 -3 35 -14 -34 -24 9 -11 46 6 18 9 35 6 37 -3 3 -5 0 -5 -6 0 -7 -3 -12 -7 -12 -11 0 -10 162 1 179 7 10 6 12 -4 6 -13 -8 -12 3 5 50 8 20 8 20 -8 0 -14 -18 -15 -15 -14 48 1 37 -1 67 -5 67 -4 0 -3 11 2 25 6 15 6 26 0 30 -6 4 -10 99 -10 233 0 125 -3 251 -6 280 -6 46 -8 50 -20 35 -17 -23 -19 -1 -2 30 10 19 9 20 -4 9 -13 -10 -16 -8 -22 19 -6 30 7 69 23 69 4 0 8 -15 9 -33 2 -48 67 -214 107 -272 74 -108 195 -170 348 -178 189 -10 340 65 440 218 l39 60 -6 -50 c-6 -49 -6 -50 8 -20 8 17 31 105 51 195 20 91 43 171 50 179 29 30 132 32 187 4z m1247 -46 c40 -53 58 -103 27 -77 -32 26 -90 130 -72 130 2 0 22 -24 45 -53z m60 2 c25 -23 30 -34 22 -42 -9 -9 -17 -6 -32 13 -50 64 -45 79 10 29z m-2549 13 c0 -4 -16 -23 -35 -42 -41 -40 -48 -20 -7 21 27 29 42 36 42 21z m10 -34 c0 -7 -11 -26 -25 -43 -19 -24 -24 -26 -25 -12 0 19 30 66 43 67 4 0 7 -6 7 -12z m2469 -34 c26 -38 30 -50 23 -77 l-8 -31 -33 57 c-21 37 -30 64 -26 77 3 11 8 20 10 20 2 0 17 -21 34 -46z m-2545 -37 c17 -17 28 -50 44 -137 29 -157 28 -167 -38 -238 -65 -71 -112 -158 -118 -222 -3 -39 0 -51 23 -78 15 -18 36 -32 47 -32 32 0 98 -42 103 -65 2 -11 6 -73 8 -137 4 -116 4 -118 -18 -118 -30 0 -50 24 -76 95 -12 33 -42 97 -66 142 -27 51 -50 109 -59 155 l-15 74 51 205 c28 112 54 207 58 211 4 4 29 -24 56 -62 28 -38 51 -68 53 -66 6 6 -58 114 -93 155 -37 43 -96 77 -114 66 -17 -10 -11 -25 9 -25 10 0 30 -9 44 -20 l25 -20 -22 -82 c-13 -46 -31 -125 -41 -176 -12 -58 -22 -86 -26 -75 -3 10 -12 86 -19 170 -19 237 6 302 118 303 32 0 49 -6 66 -23z m2546 -101 c0 -27 -16 -18 -33 19 -26 55 -21 76 8 33 14 -20 25 -44 25 -52z m-21 -66 c0 -11 -3 -10 -14 4 -8 11 -15 29 -15 40 1 19 2 19 15 -4 8 -14 14 -32 14 -40z m-2483 -249 c-8 -9 -25 -38 -36 -64 -25 -57 -21 -85 20 -147 27 -41 41 -100 23 -100 -5 0 -19 9 -33 20 -14 11 -34 20 -46 20 -27 0 -52 28 -60 68 -8 40 36 135 97 212 39 48 44 52 47 31 2 -12 -3 -30 -12 -40z m17 -130 c4 -82 4 -83 -14 -60 -28 37 -32 72 -13 120 21 50 21 49 27 -60z m2321 -1033 c-7 -288 -9 -293 -149 -426 -269 -258 -783 -499 -1105 -519 -101 -6 -200 9 -294 44 l-49 18 -38 100 c-38 101 -47 102 -29 5 6 -29 8 -55 6 -58 -16 -15 -177 162 -210 230 -19 42 -28 86 -41 211 -9 87 -15 161 -12 163 2 2 26 -28 54 -68 235 -345 320 -424 507 -473 191 -49 435 -19 611 76 66 35 222 186 342 329 132 159 311 412 357 507 25 51 48 93 51 93 3 0 2 -105 -1 -232z m-1984 -359 c-17 -24 -40 -74 -52 -112 -30 -98 -22 -174 31 -304 35 -85 41 -112 41 -171 0 -39 -4 -82 -9 -95 -25 -65 -447 -278 -848 -427 -593 -221 -913 -397 -1051 -575 -60 -78 -177 -310 -216 -427 -20 -63 -72 -285 -92 -395 -3 -18 -11 -23 -35 -23 -24 0 -29 4 -25 18 3 9 17 76 31 147 31 153 100 368 155 480 57 117 153 260 215 319 139 134 538 338 945 486 215 77 397 153 544 227 169 84 314 170 327 194 23 44 13 121 -29 227 -22 56 -46 126 -52 155 -20 97 22 226 102 313 37 41 43 44 46 26 2 -11 -11 -40 -28 -63z m563 -1476 c-7 -2 -19 -2 -25 0 -7 3 -2 5 12 5 14 0 19 -2 13 -5z m-206 -253 c39 -16 120 -42 179 -57 106 -27 117 -28 379 -28 241 0 282 3 384 23 62 13 115 21 118 19 5 -6 -121 -40 -252 -68 -135 -30 -399 -32 -523 -5 -112 24 -202 55 -297 104 -94 48 -89 54 12 12z m3702 -187 c-36 -38 -85 -93 -110 -123 -87 -103 -264 -384 -290 -458 -9 -28 -16 -32 -45 -32 l-34 0 30 59 c16 33 71 121 121 197 75 112 119 165 236 281 148 147 206 195 92 76z m-5693 -114 c-8 -68 -17 -176 -20 -239 -14 -254 -15 -260 -43 -260 -24 0 -25 0 -18 68 15 154 47 367 81 535 13 65 13 12 0 -104z"
      fill="none"
      stroke="hsl(var(--background))"
      stroke-width="60"
      stroke-linejoin="round"
    />

    {/* Layer 2: The foreground-colored fill */}
    {/* This color also adapts, appearing black on light mode and white on dark mode. */}
    <path
      d="M4450 9154 c-30 -8 -83 -28 -117 -43 l-62 -29 -63 26 c-90 37 -229 43 -325 13 -73 -21 -169 -83 -196 -125 -15 -22 -20 -24 -47 -14 -17 5 -60 8 -95 6 -89 -5 -138 -40 -184 -131 -31 -60 -38 -67 -70 -73 -111 -18 -180 -85 -197 -194 -6 -36 -13 -45 -58 -74 -67 -43 -132 -115 -161 -179 -27 -58 -49 -179 -40 -215 4 -15 -5 -45 -26 -87 -30 -61 -31 -68 -25 -147 3 -46 5 -119 5 -164 0 -49 8 -112 20 -160 11 -43 24 -135 30 -202 12 -133 48 -342 87 -510 13 -57 24 -109 24 -116 0 -7 -16 -18 -35 -25 -19 -7 -46 -27 -59 -44 -41 -55 -49 -100 -43 -226 12 -220 36 -446 52 -496 9 -27 49 -115 88 -195 75 -151 108 -190 163 -190 13 0 24 -3 24 -7 0 -5 5 -37 11 -73 14 -89 68 -199 186 -375 140 -211 147 -238 82 -300 -92 -89 -139 -192 -141 -306 -1 -84 6 -113 53 -232 27 -66 39 -113 39 -146 0 -57 12 -48 -195 -158 -182 -98 -372 -181 -648 -285 -310 -116 -440 -172 -612 -264 -274 -149 -379 -233 -478 -384 -102 -158 -167 -307 -223 -510 -26 -95 -74 -319 -74 -347 0 -2 1508 -3 3350 -3 l3350 0 0 364 0 365 -82 54 c-196 129 -1271 777 -1633 984 -108 62 -106 62 -148 -4 -110 -177 -326 -348 -632 -499 -311 -153 -605 -231 -911 -241 -169 -6 -338 6 -386 27 -17 8 -9 9 34 4 94 -9 348 -6 428 6 351 52 612 137 930 301 185 96 283 165 400 279 97 95 150 176 150 231 0 43 -19 63 -150 149 -199 133 -220 173 -220 415 0 196 -12 238 -86 312 -49 49 -68 83 -46 83 22 0 104 -64 127 -98 44 -66 55 -122 55 -273 0 -76 5 -160 11 -188 15 -69 64 -122 209 -221 117 -80 150 -115 150 -158 0 -10 11 -24 25 -30 26 -12 343 -198 795 -467 341 -203 873 -529 933 -571 l47 -34 0 28 c0 16 -8 36 -17 44 -47 40 -1184 727 -1572 950 -150 85 -156 90 -180 141 -21 42 -39 61 -91 94 -128 84 -216 153 -235 185 -17 29 -20 54 -22 204 -1 143 -5 180 -22 229 -37 104 -96 170 -177 199 l-39 13 3 203 c2 144 6 210 16 229 7 14 16 43 20 63 7 36 7 37 37 26 53 -18 116 -5 155 33 34 33 131 182 172 264 60 121 96 326 97 555 0 164 0 165 -30 225 -24 49 -38 64 -72 80 -36 17 -42 24 -38 42 3 13 16 110 30 215 14 106 36 279 50 383 38 287 43 331 38 359 -3 15 4 48 17 79 17 38 23 72 24 127 0 103 -24 169 -85 233 -46 47 -49 54 -49 102 0 98 -48 198 -110 230 -18 10 -31 29 -43 69 -35 110 -118 187 -224 209 -58 12 -65 16 -91 58 -58 91 -147 140 -259 142 -54 1 -61 4 -109 47 -111 100 -254 150 -424 149 -58 0 -129 -7 -160 -15z m297 -49 c138 -32 272 -125 322 -222 32 -63 25 -62 -18 3 -125 186 -395 261 -646 179 -11 -3 -8 1 7 10 73 42 227 56 335 30z m-611 -40 c27 -8 58 -21 69 -29 14 -10 3 -9 -38 5 -116 39 -258 21 -353 -44 -59 -41 -132 -143 -140 -198 -4 -21 -10 -39 -14 -39 -10 0 5 70 25 115 28 70 130 159 214 190 49 18 176 18 237 0z m661 -71 c57 -27 135 -107 151 -154 6 -16 10 -30 8 -30 -2 0 -16 22 -33 48 -37 60 -106 117 -180 149 -32 13 -44 22 -28 18 17 -3 53 -17 82 -31z m-184 -1 c84 -26 172 -110 192 -183 3 -14 -7 -2 -24 26 -75 127 -216 180 -406 152 -67 -10 -23 9 49 21 60 10 123 5 189 -16z m-410 -23 c60 -9 146 -45 182 -74 11 -9 -7 -3 -40 13 -194 96 -430 37 -544 -136 -35 -53 -40 -50 -11 6 22 45 107 124 163 153 36 18 138 45 177 47 8 1 41 -3 73 -9z m-681 -65 c-51 -57 -65 -140 -38 -228 16 -55 11 -62 -10 -12 -31 74 -12 199 38 252 35 37 43 26 10 -12z m61 -74 c-16 -171 125 -274 289 -211 97 37 161 43 251 25 79 -16 153 -48 192 -82 31 -28 75 -83 75 -95 0 -6 -13 6 -29 26 -56 70 -126 110 -234 132 -81 17 -118 14 -235 -23 -104 -32 -162 -28 -229 13 -78 49 -115 148 -90 247 12 44 15 31 10 -32z m-179 -26 c-38 -123 26 -263 149 -327 46 -24 121 -28 258 -14 71 8 80 7 138 -19 109 -49 182 -156 197 -288 3 -28 1 -70 -4 -92 -10 -38 -10 -36 -11 32 -2 136 -58 253 -149 312 -69 44 -127 53 -230 35 -125 -22 -199 -3 -283 73 -57 52 -81 104 -87 191 -4 56 -1 82 13 112 24 53 28 46 9 -15z m1072 16 c59 -28 181 -128 169 -139 -2 -3 -27 16 -55 42 -145 135 -344 149 -520 35 -32 -21 -34 -21 -17 -2 25 28 113 75 172 90 77 19 175 9 251 -26z m699 -114 c86 -42 124 -73 163 -135 66 -103 78 -234 33 -353 -22 -58 -86 -140 -125 -161 -11 -6 2 14 31 45 73 80 97 146 97 267 1 114 -18 163 -90 241 -52 55 -78 72 -164 106 -30 12 -46 22 -35 22 11 1 52 -14 90 -32z m275 -84 c71 -106 93 -170 93 -273 1 -101 -24 -174 -80 -240 -36 -42 -116 -100 -137 -100 -6 0 -5 4 3 9 8 5 16 16 17 24 1 8 14 32 28 53 14 21 35 67 47 102 12 35 23 61 26 58 10 -10 -32 -121 -64 -168 -41 -59 -27 -62 33 -6 152 140 143 392 -21 593 -25 30 -45 58 -45 62 0 16 55 -47 100 -114z m-477 87 c176 -54 295 -196 305 -363 3 -59 0 -89 -13 -124 -22 -56 -76 -118 -126 -144 -60 -30 -70 -22 -13 11 96 55 134 123 134 241 0 53 -6 78 -35 137 -60 125 -158 203 -307 242 -51 13 -63 19 -42 19 18 1 61 -8 97 -19z m-593 -50 c45 -23 115 -98 134 -143 8 -19 19 -60 26 -91 22 -106 -25 -243 -116 -341 -51 -55 -49 -50 19 43 59 80 81 147 81 242 0 60 -5 86 -25 130 -45 97 -94 140 -203 176 l-41 13 45 -6 c25 -3 61 -13 80 -23z m1225 -65 c51 -91 68 -164 63 -260 -5 -100 -35 -167 -104 -237 -26 -27 -50 -48 -54 -48 -3 0 14 21 40 48 65 67 92 130 98 226 7 119 -26 232 -101 341 l-21 30 23 -20 c12 -11 38 -47 56 -80z m-2317 -81 c27 -53 104 -121 151 -134 45 -12 116 -13 159 -1 19 6 30 6 27 1 -3 -5 -22 -14 -43 -20 -165 -45 -329 80 -338 260 l-4 65 13 -65 c7 -36 23 -84 35 -106z m1495 85 c68 -79 93 -202 62 -305 -17 -57 -85 -158 -118 -176 -15 -8 -10 2 17 32 21 23 50 68 65 99 22 47 26 70 26 141 -1 106 -27 162 -112 240 -58 53 -58 53 -16 32 22 -12 57 -40 76 -63z m-1605 29 c-20 -88 9 -185 76 -257 24 -26 26 -31 9 -22 -28 14 -66 65 -87 115 -18 43 -21 141 -6 180 15 40 19 31 8 -16z m1788 -114 c59 -127 53 -236 -18 -342 -28 -41 -117 -102 -148 -101 -8 0 6 11 31 24 107 55 153 135 153 260 0 68 -5 90 -31 145 -16 36 -46 85 -66 108 -52 62 -45 67 10 7 25 -27 57 -73 69 -101z m-346 80 c117 -127 132 -321 35 -448 -31 -41 -126 -106 -155 -106 -8 0 12 15 45 34 71 39 118 96 140 168 38 131 -6 292 -104 375 -14 13 -21 23 -15 23 6 0 30 -21 54 -46z m-483 -66 c103 -38 192 -143 207 -244 6 -42 4 -38 -27 45 -44 120 -150 194 -302 211 l-60 7 62 2 c42 1 81 -6 120 -21z m956 -147 c1 -93 -24 -168 -74 -225 -23 -26 -54 -53 -69 -61 -20 -10 -11 3 30 43 96 96 121 222 76 377 -4 11 3 0 15 -24 14 -30 21 -64 22 -110z m-2074 39 c-76 -81 -94 -127 -94 -242 0 -65 -3 -94 -10 -87 -5 6 -10 49 -10 97 0 75 4 94 28 140 28 52 105 142 123 142 6 0 -11 -23 -37 -50z m1174 -110 c27 -55 32 -77 35 -155 2 -49 0 -100 -5 -112 -5 -15 -8 13 -9 80 0 120 -19 179 -85 267 l-41 55 36 -35 c21 -19 52 -64 69 -100z m1598 68 c42 -82 17 -256 -45 -307 -10 -9 -7 3 8 30 50 91 56 212 15 292 -11 21 -15 36 -9 32 6 -3 20 -24 31 -47z m-2600 -47 c18 -19 48 -40 66 -47 46 -20 145 -17 231 6 79 21 142 16 206 -17 43 -22 125 -103 146 -143 36 -71 30 -83 -9 -19 -92 150 -207 198 -371 154 -141 -38 -261 -1 -310 95 -11 22 -20 45 -20 52 1 7 7 -1 14 -17 7 -17 28 -46 47 -64z m-99 -56 c51 -94 145 -125 294 -95 78 15 156 1 213 -41 51 -36 54 -49 4 -15 -62 42 -127 51 -230 33 -106 -20 -146 -15 -215 27 -68 41 -99 97 -97 175 l2 56 6 -55 c4 -30 14 -68 23 -85z m1365 25 c-3 -36 -15 -87 -27 -115 -24 -56 -95 -155 -111 -155 -6 0 3 16 19 35 74 84 119 207 109 300 -4 40 -4 45 5 25 5 -14 8 -54 5 -90z m713 -2 c-13 -66 -39 -126 -64 -147 -8 -7 -1 12 15 43 16 30 35 82 41 116 5 33 13 59 16 56 2 -3 -1 -34 -8 -68z m-1315 38 c79 -33 157 -147 154 -225 -1 -19 -4 -14 -13 19 -33 118 -103 190 -206 211 l-35 7 33 1 c18 0 48 -5 67 -13z m1881 -97 c-15 -93 -84 -182 -178 -229 -34 -16 -68 -30 -77 -30 -9 0 7 11 34 24 104 50 183 136 206 226 15 60 24 66 15 9z m-2627 -141 c62 -33 144 -37 225 -13 27 8 74 14 105 14 l56 -1 -58 -9 c-31 -5 -81 -15 -109 -24 -59 -17 -128 -19 -177 -5 -70 20 -138 86 -156 150 -4 14 8 0 27 -30 25 -41 46 -61 87 -82z m504 119 c39 -17 94 -62 109 -91 7 -12 -8 -3 -36 22 -26 24 -66 52 -89 63 -48 21 -34 26 16 6z m2261 -97 c50 -30 81 -94 81 -165 0 -33 -5 -69 -12 -79 -8 -15 -9 -3 -5 52 4 59 1 78 -18 117 -12 26 -38 56 -58 70 -43 30 -33 34 12 5z m-2939 -89 c-40 -18 -73 -48 -93 -86 -6 -11 -12 -15 -12 -9 -1 38 86 114 130 114 8 0 -3 -9 -25 -19z m2895 -12 c35 -20 78 -75 67 -85 -3 -3 -13 9 -24 26 -24 42 -80 70 -140 70 -36 0 -44 3 -33 11 21 13 86 2 130 -22z m-2225 10 c17 0 47 -7 68 -15 50 -19 60 -18 54 6 -3 11 -3 20 -1 20 2 0 38 -17 79 -37 61 -30 79 -35 93 -26 15 9 26 6 58 -13 45 -28 54 -29 54 -10 0 12 15 8 63 -14 59 -28 66 -29 148 -21 64 6 96 14 131 35 25 14 52 24 61 20 8 -3 38 5 67 17 42 18 53 20 60 9 7 -11 21 -9 74 12 54 22 66 24 66 11 0 -11 7 -14 23 -10 61 16 107 19 107 8 0 -15 28 -14 83 5 42 14 48 14 71 -2 19 -12 38 -15 67 -11 29 4 60 -2 107 -19 37 -13 86 -31 108 -40 31 -11 45 -23 54 -47 7 -18 23 -48 36 -67 13 -19 39 -78 59 -130 l36 -95 -10 -111 c-19 -197 -17 -225 35 -349 53 -127 68 -169 78 -207 l6 -27 -39 14 c-22 7 -61 17 -88 21 -59 8 -72 15 -140 70 -86 70 -98 74 -230 74 -133 0 -332 -22 -409 -45 -60 -18 -81 -38 -98 -96 -7 -24 -24 -51 -37 -61 -23 -18 -29 -18 -123 -2 -99 17 -126 16 -274 -12 -26 -5 -38 -2 -58 17 -13 12 -24 31 -24 41 0 32 -29 77 -60 93 -101 52 -488 81 -588 44 -13 -5 -50 -34 -82 -65 -50 -47 -67 -57 -104 -61 l-45 -5 21 78 c46 179 48 199 36 342 -13 150 -5 243 33 353 34 101 64 151 114 198 26 24 44 49 41 56 -6 16 15 25 58 25 40 0 50 8 33 28 -10 13 -5 14 43 8 30 -4 69 -8 85 -7z m-580 -41 c-62 -31 -121 -95 -150 -161 -25 -54 -27 -68 -23 -153 2 -51 0 -88 -4 -81 -4 6 -8 55 -8 107 0 102 15 150 66 217 26 34 118 93 144 92 8 0 -3 -9 -25 -21z m2795 -70 c63 -64 91 -136 96 -243 l4 -80 -15 86 c-22 139 -68 222 -150 274 -25 15 -45 29 -45 31 0 2 14 -2 31 -8 16 -6 52 -33 79 -60z m-154 17 c47 -19 104 -62 104 -77 0 -7 -12 0 -27 14 -53 49 -91 62 -203 67 -79 4 -96 7 -70 12 50 11 152 2 196 -16z m-2456 5 c18 -6 5 -8 -46 -9 -39 -1 -91 -8 -116 -17 -63 -21 -126 -78 -154 -138 -13 -28 -24 -45 -24 -38 0 50 87 159 148 184 67 27 143 34 192 18z m2355 -52 c108 -27 231 -126 279 -224 15 -31 25 -58 23 -60 -3 -3 -15 17 -28 43 -30 64 -133 164 -200 196 -63 29 -139 46 -212 48 -48 2 -50 2 -17 9 38 8 93 4 155 -12z m-2385 -18 c0 -5 -18 -10 -39 -10 -57 0 -157 -55 -198 -108 -39 -52 -43 -47 -7 7 34 52 92 91 157 107 66 16 87 17 87 4z m2351 -60 c129 -40 234 -131 298 -257 45 -90 38 -90 -14 -1 -25 42 -67 99 -93 125 -58 59 -166 117 -244 133 -32 6 -58 13 -58 16 0 10 53 3 111 -16z m-2362 -10 c-81 -14 -160 -64 -210 -133 -31 -43 -38 -43 -15 2 20 38 90 99 140 122 22 10 61 18 86 18 l45 -1 -46 -8z m2430 -96 c68 -51 177 -166 204 -216 17 -31 16 -30 -15 7 -67 82 -175 188 -223 221 -27 19 -45 34 -38 34 6 0 38 -21 72 -46z m-57 -37 c48 -34 120 -93 160 -132 72 -69 178 -212 178 -241 0 -9 -24 20 -52 63 -84 125 -135 179 -258 270 -135 102 -137 103 -124 103 5 0 48 -28 96 -63z m-2423 10 c-109 -45 -168 -100 -215 -200 -13 -29 -24 -45 -24 -36 0 31 61 138 97 170 41 36 148 89 178 89 11 0 -5 -11 -36 -23z m-4 -43 c-53 -35 -141 -121 -167 -162 -11 -18 -23 -31 -25 -28 -22 22 177 216 221 216 6 0 -7 -12 -29 -26z m2469 -85 c58 -56 106 -97 106 -92 0 5 -3 13 -7 19 -14 17 31 -32 79 -88 45 -52 118 -163 118 -180 0 -25 -25 3 -81 93 -59 94 -91 134 -76 96 10 -25 1 -21 -39 21 l-36 37 37 -47 c21 -26 42 -45 48 -41 5 3 7 1 4 -5 -4 -5 8 -29 27 -51 51 -61 98 -148 94 -173 -3 -20 -7 -16 -27 22 -60 114 -220 328 -305 407 -61 57 -79 83 -57 83 5 0 57 -45 115 -101z m-2499 -44 c-42 -41 -78 -73 -80 -72 -6 2 -45 -55 -92 -132 -21 -34 -33 -48 -33 -35 0 40 121 211 141 198 4 -2 14 5 23 17 14 21 103 99 112 99 3 0 -29 -34 -71 -75z m2443 9 c95 -77 177 -179 286 -354 41 -67 59 -120 39 -120 -5 0 -27 32 -51 70 -68 110 -151 217 -250 322 -79 84 -109 128 -86 128 3 0 31 -21 62 -46z m-2417 -96 c-24 -23 -46 -36 -53 -32 -8 5 -9 2 -5 -10 4 -9 3 -15 -1 -12 -5 3 -41 -38 -82 -90 -40 -51 -75 -92 -78 -90 -16 17 178 263 197 251 5 -2 19 7 32 21 15 16 25 21 28 13 2 -7 -15 -30 -38 -51z m2440 -25 c135 -139 299 -370 299 -420 0 -13 -3 -23 -7 -23 -5 0 -35 42 -68 92 -71 110 -167 232 -259 329 -58 62 -83 109 -58 109 5 0 47 -39 93 -87z m-2391 -2 c0 -4 -17 -30 -38 -57 -41 -53 -148 -217 -178 -274 -17 -32 -19 -33 -22 -12 -3 17 24 64 89 160 51 75 102 149 113 164 21 27 36 35 36 19z m2502 -219 c113 -144 181 -260 172 -292 -4 -14 -10 -41 -13 -60 l-7 -35 -13 25 c-36 65 -159 226 -251 328 -79 88 -103 121 -107 150 l-6 37 49 -42 c65 -55 108 -101 189 -203 78 -98 92 -113 77 -84 -25 49 -138 190 -222 278 -64 67 -88 100 -84 111 9 23 107 -75 216 -213z m-2636 96 c-42 -56 -84 -118 -93 -135 -17 -34 -33 -43 -33 -19 0 24 187 272 198 261 2 -2 -31 -50 -72 -107z m115 13 c-61 -77 -215 -307 -184 -276 5 6 37 48 70 95 34 47 79 105 101 130 62 68 52 25 -12 -54 -30 -36 -80 -102 -111 -146 -31 -44 -61 -80 -66 -80 -42 0 60 195 175 334 22 27 42 43 44 36 3 -7 -5 -24 -17 -39z m22 -117 c-3 -17 -29 -61 -60 -100 -31 -38 -76 -99 -101 -136 -25 -38 -47 -68 -48 -68 -2 0 -4 13 -4 29 0 17 15 52 38 84 47 70 173 230 177 225 1 -1 1 -17 -2 -34z m2478 -174 c32 -38 76 -96 98 -129 23 -33 45 -63 51 -66 5 -3 10 -11 10 -17 0 -7 -7 -6 -17 3 -10 8 -35 23 -57 34 -21 11 -50 35 -64 55 -15 19 -44 56 -65 83 -32 38 -117 194 -117 214 0 6 89 -91 161 -177z m-2511 29 c-7 -24 -27 -69 -46 -99 -39 -64 -46 -92 -9 -37 28 41 42 50 24 15 -13 -26 -107 -131 -120 -136 -5 -2 -9 14 -9 35 0 27 10 54 33 89 42 65 131 183 135 179 2 -2 -2 -23 -8 -46z m2045 -59 c133 -65 193 -193 166 -357 -22 -136 -105 -249 -229 -310 -74 -37 -79 -38 -187 -38 -108 0 -113 1 -188 38 -96 48 -165 115 -209 204 -29 59 -33 79 -36 161 -4 83 -1 98 22 145 53 110 98 132 325 161 167 22 286 20 336 -4z m-1331 -29 c108 -22 131 -36 171 -106 35 -60 48 -142 36 -212 -45 -240 -264 -401 -493 -363 -90 16 -197 69 -244 123 -52 60 -95 156 -107 243 -10 69 -9 81 13 145 27 82 84 152 145 181 36 17 57 19 210 14 112 -4 204 -12 269 -25z m1777 -33 c17 -21 26 -38 21 -38 -18 0 -82 67 -82 85 0 15 3 15 15 5 9 -7 29 -30 46 -52z m-1259 -115 c35 -17 43 -33 57 -118 24 -135 90 -264 177 -345 25 -23 79 -58 121 -77 68 -33 86 -37 177 -41 155 -7 270 33 363 126 86 85 136 205 149 354 3 43 12 84 18 93 12 17 84 37 99 28 5 -3 7 -85 6 -182 -3 -152 -1 -180 14 -208 10 -18 22 -33 27 -33 5 0 14 19 20 43 50 192 87 249 176 267 114 24 166 -41 172 -219 4 -101 -13 -313 -27 -339 -4 -7 -20 47 -36 120 -15 73 -36 167 -46 210 -24 96 -24 118 -1 119 30 2 47 -2 65 -18 19 -18 22 -11 7 17 -15 28 -63 34 -105 14 -47 -22 -87 -72 -132 -162 -43 -86 -49 -141 -22 -194 33 -65 34 -108 5 -167 -36 -69 -47 -101 -38 -101 5 0 19 19 32 43 13 23 32 54 43 69 24 33 19 80 -19 162 -57 125 36 65 108 -69 60 -112 39 -195 -49 -195 -45 0 -103 -23 -103 -41 0 -5 13 -3 30 6 16 8 50 15 75 15 136 0 128 187 -13 341 -29 31 -52 62 -52 68 0 38 111 198 130 186 4 -3 11 -29 15 -58 4 -28 16 -90 26 -137 59 -271 62 -292 51 -349 -13 -73 -46 -143 -125 -266 -72 -112 -108 -141 -161 -131 -66 12 -68 23 -51 201 17 177 18 241 4 270 -7 15 -8 9 -7 -25 1 -25 0 -63 -1 -85 -3 -37 -4 -38 -12 -15 -7 21 -8 20 -4 -9 7 -48 -5 -132 -18 -124 -6 3 -7 1 -3 -6 4 -6 4 -37 0 -68 -7 -59 -16 -56 -28 11 -4 21 -9 36 -12 33 -3 -2 3 -37 12 -78 12 -55 14 -77 5 -91 -6 -10 -11 -30 -12 -45 0 -25 -2 -24 -15 12 -8 22 -19 44 -24 49 -6 6 -1 -16 10 -49 19 -53 20 -66 10 -114 -9 -38 -15 -50 -21 -40 -6 10 -9 2 -9 -23 0 -20 -4 -40 -10 -43 -5 -3 -14 -25 -21 -48 -6 -23 -16 -49 -23 -57 -7 -8 -21 -34 -31 -57 -10 -24 -22 -43 -26 -43 -5 0 -10 35 -12 78 l-3 77 -2 -95 c-2 -73 -6 -102 -19 -120 -18 -25 -18 -24 -24 60 l-5 85 -2 -92 c-2 -101 -7 -123 -28 -123 -8 0 -14 -6 -14 -14 0 -7 -7 -20 -17 -27 -15 -13 -16 -8 -10 66 3 47 2 68 -3 50 -4 -16 -8 -55 -9 -85 -1 -49 -17 -90 -35 -90 -3 0 -6 8 -7 18 -1 19 -4 11 -13 -30 -11 -49 -23 -30 -15 25 4 28 7 68 7 87 0 19 -7 -8 -15 -60 -10 -69 -20 -100 -35 -115 l-20 -20 6 33 c17 90 17 97 7 82 -6 -8 -13 -40 -17 -70 -7 -57 -20 -84 -35 -74 -5 3 -9 1 -9 -5 0 -5 -16 -27 -35 -48 -48 -53 -44 -30 11 47 24 36 52 90 61 120 9 30 18 61 21 69 3 8 1 12 -5 8 -6 -4 -13 -21 -17 -38 -3 -17 -19 -47 -35 -67 -15 -21 -34 -48 -41 -62 -7 -14 -20 -33 -29 -42 -30 -32 -46 -52 -57 -73 -6 -11 -16 -19 -22 -17 -7 1 -12 -4 -12 -12 0 -8 -12 -28 -26 -43 -20 -22 -24 -24 -19 -8 17 51 35 131 34 150 -1 11 -10 -15 -20 -58 -10 -42 -25 -90 -33 -105 -14 -26 -66 -82 -66 -70 0 3 15 39 34 79 38 82 54 130 38 114 -5 -5 -17 -32 -26 -60 -21 -62 -67 -147 -83 -153 -7 -2 5 36 27 84 22 48 39 88 37 90 -4 4 -62 -108 -76 -148 -10 -26 -51 -58 -51 -40 0 5 14 40 31 77 16 37 28 69 26 71 -2 2 -20 -33 -40 -79 -27 -63 -40 -82 -56 -82 -11 0 -23 -4 -27 -8 -7 -6 -44 -10 -44 -4 0 1 7 24 15 51 8 27 15 56 14 65 0 9 -10 -17 -21 -57 -19 -68 -22 -73 -45 -69 -13 2 -26 0 -29 -5 -3 -4 -28 -8 -55 -7 -37 2 -49 6 -50 18 -1 13 -2 13 -6 -1 -7 -27 -43 -23 -44 5 l-2 22 -4 -22 c-4 -21 -9 -22 -71 -18 -59 3 -133 16 -184 31 -16 5 -37 51 -57 124 -6 22 -10 27 -10 14 -1 -12 6 -41 14 -64 8 -24 13 -45 11 -48 -8 -7 -27 9 -36 32 -8 18 -9 19 -9 2 -1 -15 -4 -16 -16 -6 -8 7 -15 19 -15 26 0 7 -6 11 -13 8 -31 -12 -60 45 -90 181 -4 16 -5 14 -6 -6 0 -14 6 -48 14 -74 17 -58 14 -66 -10 -28 -10 15 -25 33 -34 39 -9 7 -20 44 -28 90 l-13 79 6 -68 5 -68 -29 29 c-30 30 -51 107 -53 193 -1 34 -1 34 -9 7 -5 -18 -3 -51 6 -89 8 -34 13 -64 11 -66 -2 -2 -15 12 -28 32 -13 19 -29 35 -35 35 -19 0 -34 25 -43 71 -7 37 -9 39 -10 14 -2 -29 -2 -29 -16 -11 -10 13 -16 47 -17 100 l-2 81 -5 -70 c-5 -62 -7 -68 -18 -48 -7 12 -14 43 -15 70 l-1 48 -6 -45 -7 -45 -14 30 c-8 17 -17 32 -20 35 -26 23 -50 68 -51 94 0 26 -2 28 -9 11 -7 -18 -8 -19 -15 -2 -4 9 -5 39 -1 65 l5 47 -13 -40 c-13 -39 -13 -40 -20 -13 -4 15 -15 29 -23 32 -12 5 -14 16 -10 49 3 23 3 34 0 25 -7 -26 -22 -22 -29 8 -6 23 -3 51 11 114 3 14 -1 7 -10 -14 -23 -58 -28 -57 -22 4 3 32 2 47 -3 35 -14 -34 -24 9 -11 46 6 18 9 35 6 37 -3 3 -5 0 -5 -6 0 -7 -3 -12 -7 -12 -11 0 -10 162 1 179 7 10 6 12 -4 6 -13 -8 -12 3 5 50 8 20 8 20 -8 0 -14 -18 -15 -15 -14 48 1 37 -1 67 -5 67 -4 0 -3 11 2 25 6 15 6 26 0 30 -6 4 -10 99 -10 233 0 125 -3 251 -6 280 -6 46 -8 50 -20 35 -17 -23 -19 -1 -2 30 10 19 9 20 -4 9 -13 -10 -16 -8 -22 19 -6 30 7 69 23 69 4 0 8 -15 9 -33 2 -48 67 -214 107 -272 74 -108 195 -170 348 -178 189 -10 340 65 440 218 l39 60 -6 -50 c-6 -49 -6 -50 8 -20 8 17 31 105 51 195 20 91 43 171 50 179 29 30 132 32 187 4z m1247 -46 c40 -53 58 -103 27 -77 -32 26 -90 130 -72 130 2 0 22 -24 45 -53z m60 2 c25 -23 30 -34 22 -42 -9 -9 -17 -6 -32 13 -50 64 -45 79 10 29z m-2549 13 c0 -4 -16 -23 -35 -42 -41 -40 -48 -20 -7 21 27 29 42 36 42 21z m10 -34 c0 -7 -11 -26 -25 -43 -19 -24 -24 -26 -25 -12 0 19 30 66 43 67 4 0 7 -6 7 -12z m2469 -34 c26 -38 30 -50 23 -77 l-8 -31 -33 57 c-21 37 -30 64 -26 77 3 11 8 20 10 20 2 0 17 -21 34 -46z m-2545 -37 c17 -17 28 -50 44 -137 29 -157 28 -167 -38 -238 -65 -71 -112 -158 -118 -222 -3 -39 0 -51 23 -78 15 -18 36 -32 47 -32 32 0 98 -42 103 -65 2 -11 6 -73 8 -137 4 -116 4 -118 -18 -118 -30 0 -50 24 -76 95 -12 33 -42 97 -66 142 -27 51 -50 109 -59 155 l-15 74 51 205 c28 112 54 207 58 211 4 4 29 -24 56 -62 28 -38 51 -68 53 -66 6 6 -58 114 -93 155 -37 43 -96 77 -114 66 -17 -10 -11 -25 9 -25 10 0 30 -9 44 -20 l25 -20 -22 -82 c-13 -46 -31 -125 -41 -176 -12 -58 -22 -86 -26 -75 -3 10 -12 86 -19 170 -19 237 6 302 118 303 32 0 49 -6 66 -23z m2546 -101 c0 -27 -16 -18 -33 19 -26 55 -21 76 8 33 14 -20 25 -44 25 -52z m-21 -66 c0 -11 -3 -10 -14 4 -8 11 -15 29 -15 40 1 19 2 19 15 -4 8 -14 14 -32 14 -40z m-2483 -249 c-8 -9 -25 -38 -36 -64 -25 -57 -21 -85 20 -147 27 -41 41 -100 23 -100 -5 0 -19 9 -33 20 -14 11 -34 20 -46 20 -27 0 -52 28 -60 68 -8 40 36 135 97 212 39 48 44 52 47 31 2 -12 -3 -30 -12 -40z m17 -130 c4 -82 4 -83 -14 -60 -28 37 -32 72 -13 120 21 50 21 49 27 -60z m2321 -1033 c-7 -288 -9 -293 -149 -426 -269 -258 -783 -499 -1105 -519 -101 -6 -200 9 -294 44 l-49 18 -38 100 c-38 101 -47 102 -29 5 6 -29 8 -55 6 -58 -16 -15 -177 162 -210 230 -19 42 -28 86 -41 211 -9 87 -15 161 -12 163 2 2 26 -28 54 -68 235 -345 320 -424 507 -473 191 -49 435 -19 611 76 66 35 222 186 342 329 132 159 311 412 357 507 25 51 48 93 51 93 3 0 2 -105 -1 -232z m-1984 -359 c-17 -24 -40 -74 -52 -112 -30 -98 -22 -174 31 -304 35 -85 41 -112 41 -171 0 -39 -4 -82 -9 -95 -25 -65 -447 -278 -848 -427 -593 -221 -913 -397 -1051 -575 -60 -78 -177 -310 -216 -427 -20 -63 -72 -285 -92 -395 -3 -18 -11 -23 -35 -23 -24 0 -29 4 -25 18 3 9 17 76 31 147 31 153 100 368 155 480 57 117 153 260 215 319 139 134 538 338 945 486 215 77 397 153 544 227 169 84 314 170 327 194 23 44 13 121 -29 227 -22 56 -46 126 -52 155 -20 97 22 226 102 313 37 41 43 44 46 26 2 -11 -11 -40 -28 -63z m563 -1476 c-7 -2 -19 -2 -25 0 -7 3 -2 5 12 5 14 0 19 -2 13 -5z m-206 -253 c39 -16 120 -42 179 -57 106 -27 117 -28 379 -28 241 0 282 3 384 23 62 13 115 21 118 19 5 -6 -121 -40 -252 -68 -135 -30 -399 -32 -523 -5 -112 24 -202 55 -297 104 -94 48 -89 54 12 12z m3702 -187 c-36 -38 -85 -93 -110 -123 -87 -103 -264 -384 -290 -458 -9 -28 -16 -32 -45 -32 l-34 0 30 59 c16 33 71 121 121 197 75 112 119 165 236 281 148 147 206 195 92 76z m-5693 -114 c-8 -68 -17 -176 -20 -239 -14 -254 -15 -260 -43 -260 -24 0 -25 0 -18 68 15 154 47 367 81 535 13 65 13 12 0 -104z"
      fill="hsl(var(--foreground))"
    />
    <path d="M5690 7442 c0 -5 7 -15 15 -22 8 -7 15 -8 15 -2 0 5 -7 15 -15 22 -8 7 -15 8 -15 2z"/>
    <path d="M3007 7453 c-4 -3 -7 -11 -7 -17 0 -6 5 -5 12 2 6 6 9 14 7 17 -3 3 -9 2 -12 -2z"/>
    <path d="M3070 7410 c-6 -11 -8 -20 -6 -20 3 0 10 9 16 20 6 11 8 20 6 20 -3 0 -10 -9 -16 -20z"/>
    <path d="M5766 6957 c3 -10 9 -15 12 -12 3 3 0 11 -7 18 -10 9 -11 8 -5 -6z"/>
    <path d="M4740 6816 c-54 -16 -100 -34 -100 -40 0 -2 21 2 47 10 25 8 48 12 50 10 2 -2 -15 -15 -39 -29 -24 -14 -57 -38 -74 -54 -16 -15 -23 -23 -15 -17 21 16 131 70 157 78 20 6 22 2 26 -39 l3 -46 -62 3 c-35 2 -63 0 -63 -3 0 -10 260 -22 315 -14 28 3 81 11 118 17 62 10 70 10 95 -8 65 -48 72 -36 15 27 -43 47 -126 92 -201 108 -70 15 -215 13 -272 -3z m362 -102 c-15 -6 -43 -14 -63 -18 l-36 -6 10 44 10 45 53 -27 53 -27 -27 -11z"/>
    <path d="M5251 6636 c2 -2 22 -6 44 -10 29 -5 36 -4 25 3 -13 10 -79 16 -69 7z"/>
    <path d="M5171 6596 c8 -7 99 -35 99 -30 0 8 -67 34 -86 34 -10 0 -15 -2 -13 -4z"/>
    <path d="M4770 6578 c48 -18 190 -25 259 -13 39 7 73 14 75 16 2 2 -76 4 -174 4 -99 0 -171 -3 -160 -7z"/>
    <path d="M5102 6555 c9 -10 112 -45 116 -40 2 2 -9 10 -25 18 -32 17 -102 33 -91 22z"/>
    <path d="M3602 6810 c-34 -5 -86 -20 -115 -33 -51 -24 -137 -98 -137 -118 0 -5 -19 -19 -42 -29 -47 -21 -40 -27 11 -9 17 6 31 14 31 18 0 4 18 18 41 30 38 21 46 22 97 12 31 -6 133 -10 231 -9 97 1 155 3 129 5 l-47 4 6 37 c3 20 8 39 10 42 2 2 42 -15 89 -38 97 -48 103 -41 14 14 -33 20 -60 39 -60 42 0 4 56 -5 88 -14 9 -3 6 2 -8 10 -14 9 -41 20 -60 26 -51 14 -205 20 -278 10z m-22 -67 c0 -10 3 -27 6 -39 5 -20 3 -21 -48 -16 -80 7 -85 15 -31 45 56 31 73 33 73 10z"/>
    <path d="M3343 6570 c-62 -28 -53 -32 17 -8 33 11 60 22 60 24 0 10 -38 2 -77 -16z"/>
    <path d="M3740 6573 c-48 -9 -110 -12 -175 -9 -60 3 -88 1 -70 -4 60 -16 227 -11 290 9 71 23 57 24 -45 4z"/>
    <path d="M3414 6526 c-52 -23 -49 -38 3 -17 26 10 57 21 68 24 14 3 11 5 -10 5 -16 1 -44 -5 -61 -12z"/>
    <path d="M4020 6216 c-25 -67 -6 -180 37 -219 16 -14 14 -5 -10 43 -29 58 -30 62 -19 127 12 72 9 92 -8 49z"/>
    <path d="M3865 6193 c-36 -40 -59 -105 -51 -147 9 -47 54 -79 130 -94 32 -6 104 -34 160 -62 58 -29 115 -50 133 -50 19 0 82 25 154 60 67 33 132 60 145 60 30 0 31 16 2 24 -74 19 -158 -6 -189 -58 -28 -49 -36 -54 -82 -61 -53 -8 -91 9 -132 57 -15 18 -45 40 -67 50 -44 20 -153 25 -163 8 -9 -15 -32 5 -52 43 -21 41 -12 107 21 157 31 47 27 51 -9 13z"/>
    <path d="M4650 6164 c17 -44 12 -126 -10 -161 -11 -18 -25 -33 -32 -33 -6 0 -9 -3 -6 -6 9 -8 50 15 70 40 24 29 23 98 -2 146 -23 45 -35 53 -20 14z"/>
    <path d="M5561 6128 c0 -31 3 -37 8 -24 7 18 3 66 -5 66 -2 0 -4 -19 -3 -42z"/>
    <path d="M4826 6003 c50 -86 106 -157 176 -224 55 -52 74 -77 88 -120 20 -57 27 -39 10 23 -7 24 -39 68 -90 123 -43 47 -106 121 -141 165 -34 44 -64 80 -66 80 -3 0 8 -21 23 -47z"/>
    <path d="M3654 5948 c-27 -35 -79 -97 -117 -138 -68 -73 -103 -130 -93 -153 2 -7 5 -5 5 4 1 9 34 52 74 95 72 79 124 147 166 217 34 56 18 45 -35 -25z"/>
    <path d="M5501 5920 c0 -8 4 -22 9 -30 12 -18 12 -2 0 25 -6 13 -9 15 -9 5z"/>
    <path d="M3186 5895 c-9 -26 -7 -32 5 -12 6 10 9 21 6 23 -2 3 -7 -2 -11 -11z"/>
    <path d="M4386 5860 c-103 -38 -129 -56 -118 -77 5 -9 7 -23 5 -32 -2 -9 1 -27 7 -41 10 -23 10 -22 5 10 l-5 35 19 -31 c16 -27 27 -32 72 -37 30 -4 79 -7 110 -7 73 0 303 -42 404 -74 44 -14 90 -26 103 -26 13 0 33 -5 44 -11 14 -7 23 -8 31 0 15 15 -10 95 -38 121 -26 24 -301 140 -419 176 -99 30 -123 30 -220 -6z m150 -42 c28 -44 57 -108 50 -108 -3 0 -17 22 -33 49 -15 28 -30 45 -34 40 -4 -7 -9 -4 -12 6 -4 9 -3 13 3 10 13 -8 13 1 0 26 -20 36 0 19 26 -23z m-111 -29 c33 -63 50 -107 37 -94 -12 12 -73 145 -67 145 3 0 16 -23 30 -51z m39 7 c28 -47 48 -96 41 -96 -3 0 -19 28 -37 63 -41 77 -41 77 -35 77 3 0 17 -20 31 -44z m182 -42 c25 -41 44 -77 42 -80 -3 -2 -21 21 -40 53 -19 32 -43 71 -54 88 -10 16 -14 26 -7 22 7 -4 33 -41 59 -83z m-271 36 c20 -39 36 -80 30 -80 -5 0 -31 49 -45 85 -13 34 -4 31 15 -5z m346 -76 c22 -38 32 -60 21 -49 -22 23 -92 146 -73 129 7 -6 30 -42 52 -80z m-402 46 c11 -24 11 -24 -3 -6 -9 11 -16 24 -16 30 0 12 5 7 19 -24z m40 -6 c12 -20 20 -38 18 -40 -2 -2 -14 14 -26 36 -28 50 -21 53 8 4z m231 16 c6 -11 8 -20 6 -20 -3 0 -10 9 -16 20 -6 11 -8 20 -6 20 3 0 10 -9 16 -20z m195 -67 c14 -26 24 -48 22 -50 -4 -4 -45 55 -67 97 -25 47 17 3 45 -47z m57 -27 c7 -13 7 -16 -1 -12 -6 4 -18 22 -27 39 -14 30 -14 31 1 12 9 -11 21 -28 27 -39z m60 -19 c39 -55 10 -37 -32 20 -31 41 -35 51 -16 33 16 -14 37 -38 48 -53z m51 1 l19 -33 -21 25 c-12 14 -27 34 -33 45 -9 17 -9 18 3 8 8 -6 22 -26 32 -45z m57 -43 c0 -11 -14 7 -31 40 -7 13 -3 12 10 -5 11 -14 21 -29 21 -35z m20 19 c12 -19 20 -37 18 -39 -2 -3 -15 13 -27 35 -28 50 -21 53 9 4z"/>
    <path d="M3910 5851 c-47 -15 -126 -45 -175 -68 -50 -22 -117 -51 -150 -64 -73 -30 -105 -71 -105 -135 0 -41 1 -43 23 -34 65 28 432 109 443 98 2 -2 -39 -15 -91 -28 -52 -13 -93 -25 -91 -28 3 -2 53 7 113 21 151 35 210 41 290 27 57 -9 89 -8 179 5 123 18 206 12 348 -25 100 -25 131 -25 51 0 -137 45 -335 63 -428 40 -27 -7 -86 -8 -165 -3 l-123 8 36 73 c21 40 39 71 42 69 2 -3 -10 -33 -27 -67 -17 -34 -29 -65 -26 -68 9 -8 116 18 116 29 0 6 4 8 10 4 11 -7 40 46 40 73 0 25 -12 35 -85 65 -94 39 -128 40 -225 8z m88 -61 c-18 -33 -44 -72 -56 -88 -22 -24 -21 -22 4 23 39 71 73 125 80 125 2 0 -10 -27 -28 -60z m64 8 c-10 -18 -31 -55 -46 -81 -15 -27 -30 -46 -33 -44 -8 8 81 157 93 157 3 0 -3 -15 -14 -32z m-183 -15 c-52 -89 -82 -133 -86 -130 -4 5 97 167 104 167 3 0 -5 -17 -18 -37z m28 -36 c-20 -35 -44 -70 -54 -78 -17 -13 -17 -13 -2 11 9 14 31 51 49 83 18 32 35 56 37 53 3 -3 -11 -34 -30 -69z m-54 50 c-29 -47 -114 -167 -119 -167 -9 0 25 56 71 118 26 34 49 62 51 62 3 0 1 -6 -3 -13z m296 -46 c-12 -29 -23 -50 -25 -48 -3 2 5 27 17 56 12 28 24 50 26 47 2 -2 -6 -27 -18 -55z m-408 -54 c-45 -61 -79 -91 -41 -36 49 69 73 99 77 95 3 -2 -14 -29 -36 -59z m450 30 c-10 -9 -11 -8 -5 6 3 10 9 15 12 12 3 -3 0 -11 -7 -18z m-527 -46 c-14 -23 -29 -41 -31 -41 -3 0 1 10 9 23 8 12 21 32 29 44 7 12 15 20 17 18 2 -2 -9 -22 -24 -44z m34 3 c-31 -44 -60 -73 -43 -43 14 24 66 89 71 89 3 0 -10 -21 -28 -46z m-89 -24 c-31 -38 -39 -46 -39 -35 0 6 61 75 67 75 2 0 -11 -18 -28 -40z m-38 -7 c-15 -29 -40 -59 -41 -50 0 10 39 67 46 67 3 0 0 -8 -5 -17z m426 1 c-3 -3 -12 -4 -19 -1 -8 3 -5 6 6 6 11 1 17 -2 13 -5z"/>
    <path d="M5480 5875 c0 -5 5 -17 10 -25 5 -8 10 -10 10 -5 0 6 -5 17 -10 25 -5 8 -10 11 -10 5z"/>
    <path d="M3205 5719 c-4 -6 -5 -12 -2 -15 2 -3 7 2 10 11 7 17 1 20 -8 4z"/>
    <path d="M5446 5700 c10 -54 25 -83 18 -35 -4 22 -11 47 -16 55 -6 10 -7 3 -2 -20z"/>
    <path d="M3215 5670 c-4 -12 -5 -24 -2 -27 3 -2 8 5 12 17 4 12 5 24 2 27 -3 2 -8 -5 -12 -17z"/>
    <path d="M5285 5613 c-12 -67 -75 -251 -116 -340 -58 -127 -40 -113 24 19 61 124 91 214 102 301 8 64 1 78 -10 20z"/>
    <path d="M3230 5609 c-6 -11 -10 -27 -8 -35 2 -8 8 1 14 20 12 40 10 46 -6 15z"/>
    <path d="M3345 5558 c4 -24 18 -72 31 -108 27 -73 135 -292 141 -287 2 3 -28 78 -67 168 -39 90 -78 188 -86 217 -19 63 -28 68 -19 10z"/>
    <path d="M4345 5589 c-27 -5 -113 -7 -190 -3 -119 5 -166 2 -310 -19 -93 -14 -186 -23 -205 -21 l-35 4 33 -15 c18 -9 57 -34 85 -57 69 -55 169 -100 297 -135 94 -25 120 -28 255 -27 133 1 160 4 240 28 139 42 251 91 335 146 42 27 82 50 88 50 7 0 12 5 12 11 0 7 -11 9 -29 6 -16 -3 -105 5 -198 18 -172 26 -290 30 -378 14z m300 -30 c66 -5 120 -11 121 -12 1 -1 0 -24 -3 -50 -7 -56 5 -49 -168 -101 -153 -45 -216 -56 -334 -56 -119 0 -185 11 -322 52 l-107 32 -7 44 c-4 25 -9 50 -11 56 -8 20 164 37 353 35 95 -2 176 1 180 4 10 10 161 8 298 -4z"/>
    <path d="M5401 5574 c0 -11 3 -14 6 -6 3 7 2 16 -1 19 -3 4 -6 -2 -5 -13z"/>
    <path d="M5411 5534 c0 -11 3 -14 6 -6 3 7 2 16 -1 19 -3 4 -6 -2 -5 -13z"/>
    <path d="M3276 5445 c-3 -9 -6 -22 -5 -28 0 -7 5 -1 10 12 5 13 8 26 5 28 -2 2 -6 -3 -10 -12z"/>
    <path d="M5362 5425 c0 -16 2 -22 5 -12 2 9 2 23 0 30 -3 6 -5 -1 -5 -18z"/>
    <path d="M4775 5394 c-176 -155 -279 -194 -510 -194 -208 0 -279 21 -408 118 -93 71 -100 72 -30 4 113 -110 231 -151 439 -152 207 0 372 68 514 214 53 55 51 59 -5 10z"/>
    <path d="M3301 5369 c-6 -18 -11 -37 -10 -43 0 -6 7 7 15 28 8 22 12 41 10 43 -2 2 -9 -10 -15 -28z"/>
    <path d="M5343 5355 c0 -22 2 -30 4 -17 2 12 2 30 0 40 -3 9 -5 -1 -4 -23z"/>
    <path d="M5323 5295 c0 -33 2 -45 4 -27 2 18 2 45 0 60 -2 15 -4 0 -4 -33z"/>
    <path d="M3351 5274 c0 -11 3 -14 6 -6 3 7 2 16 -1 19 -3 4 -6 -2 -5 -13z"/>
    <path d="M3382 5250 c0 -14 2 -19 5 -12 2 6 2 18 0 25 -3 6 -5 1 -5 -13z"/>
    <path d="M5272 5245 c0 -16 2 -22 5 -12 2 9 2 23 0 30 -3 6 -5 -1 -5 -18z"/>
    <path d="M3392 5175 c0 -16 2 -22 5 -12 2 9 2 23 0 30 -3 6 -5 -1 -5 -18z"/>
    <path d="M5213 5125 c0 -33 2 -45 4 -27 2 18 2 45 0 60 -2 15 -4 0 -4 -33z"/>
    <path d="M4420 5139 c-55 -17 -84 -19 -190 -15 -69 2 -136 7 -150 10 -23 6 -23 5 3 -7 15 -7 25 -16 22 -19 -4 -3 17 -14 46 -23 62 -21 185 -16 262 11 66 22 53 28 -24 9 -35 -8 -91 -14 -124 -14 -55 1 -52 3 40 14 114 14 185 31 185 45 0 6 -1 10 -2 9 -2 0 -32 -9 -68 -20z m-227 -36 c-7 -2 -19 -2 -25 0 -7 3 -2 5 12 5 14 0 19 -2 13 -5z"/>
    <path d="M5123 5040 c0 -30 2 -43 4 -27 2 15 2 39 0 55 -2 15 -4 2 -4 -28z"/>
    <path d="M3563 5020 c0 -30 2 -43 4 -27 2 15 2 39 0 55 -2 15 -4 2 -4 -28z"/>
    <path d="M4157 5039 c10 -4 50 -8 88 -9 51 -2 63 -4 45 -10 -21 -7 -18 -8 18 -9 26 -1 41 3 37 9 -3 6 3 10 14 10 12 0 21 3 21 8 0 4 -55 7 -121 7 -66 1 -113 -2 -102 -6z"/>
    <path d="M3521 5024 c0 -11 3 -14 6 -6 3 7 2 16 -1 19 -3 4 -6 -2 -5 -13z"/>
    <path d="M4203 5013 c9 -2 25 -2 35 0 9 3 1 5 -18 5 -19 0 -27 -2 -17 -5z"/>
    <path d="M4992 5000 c0 -14 2 -19 5 -12 2 6 2 18 0 25 -3 6 -5 1 -5 -13z"/>
    <path d="M3581 4974 c0 -11 3 -14 6 -6 3 7 2 16 -1 19 -3 4 -6 -2 -5 -13z"/>
    <path d="M4253 4983 c15 -2 37 -2 50 0 12 2 0 4 -28 4 -27 0 -38 -2 -22 -4z"/>
    <path d="M4913 4900 c0 -41 2 -58 4 -37 2 20 2 54 0 75 -2 20 -4 3 -4 -38z"/>
    <path d="M4957 4950 c-12 -44 -10 -52 13 -38 11 7 20 22 19 33 0 20 0 20 -8 0 -8 -19 -9 -18 -12 5 l-4 25 -8 -25z"/>
    <path d="M3661 4925 c0 -22 6 -62 13 -90 18 -63 18 -42 1 55 -10 59 -13 66 -14 35z"/>
    <path d="M4876 4879 c-3 -17 -5 -46 -5 -63 1 -18 5 -7 10 28 9 63 6 88 -5 35z"/>
    <path d="M3721 4844 c0 -11 3 -14 6 -6 3 7 2 16 -1 19 -3 4 -6 -2 -5 -13z"/>
    <path d="M4842 4805 c0 -16 2 -22 5 -12 2 9 2 23 0 30 -3 6 -5 -1 -5 -18z"/>
    <path d="M3731 4799 c0 -13 4 -33 9 -44 7 -14 8 -8 3 20 -7 46 -13 59 -12 24z"/>
    <path d="M3812 4745 c0 -11 3 -29 8 -40 11 -25 11 1 0 35 -6 20 -8 21 -8 5z"/>
    <path d="M4831 4734 c0 -11 3 -14 6 -6 3 7 2 16 -1 19 -3 4 -6 -2 -5 -13z"/>
    <path d="M3841 4714 c0 -11 3 -14 6 -6 3 7 2 16 -1 19 -3 4 -6 -2 -5 -13z"/>
    <path d="M3871 4714 c-2 -16 30 -117 35 -112 2 3 -4 31 -15 64 -10 32 -19 54 -20 48z"/>
    <path d="M3852 4675 c0 -11 3 -29 8 -40 11 -25 11 1 0 35 -6 20 -8 21 -8 5z"/>
    <path d="M4562 4593 c-12 -31 -20 -59 -18 -61 2 -2 14 22 25 54 12 31 20 58 18 61 -2 2 -14 -22 -25 -54z"/>
    <path d="M3991 4615 c1 -19 18 -51 18 -35 0 8 -4 22 -9 30 -5 8 -9 11 -9 5z"/>
    <path d="M4446 4564 c-21 -62 -13 -69 9 -9 10 25 15 48 13 51 -3 3 -13 -16 -22 -42z"/>
    <path d="M4046 4570 c3 -14 11 -32 16 -40 6 -10 7 -7 2 10 -3 14 -11 32 -16 40 -6 10 -7 7 -2 -10z"/>
    <path d="M4202 4565 c0 -16 2 -22 5 -12 2 9 2 23 0 30 -3 6 -5 -1 -5 -18z"/>
    <path d="M4406 4564 c-4 -14 -5 -28 -3 -31 3 -2 8 8 11 23 4 14 5 28 3 31 -3 2 -8 -8 -11 -23z"/>
    <path d="M4352 4543 c-15 -48 -8 -55 8 -8 7 20 10 38 8 41 -3 2 -10 -13 -16 -33z"/>
    <path d="M4262 4550 c0 -14 2 -19 5 -12 2 6 2 18 0 25 -3 6 -5 1 -5 -13z"/>
    <path d="M4010 4555 c0 -5 5 -17 10 -25 5 -8 10 -10 10 -5 0 6 -5 17 -10 25 -5 8 -10 11 -10 5z"/>
    <path d="M4171 4534 c0 -11 3 -14 6 -6 3 7 2 16 -1 19 -3 4 -6 -2 -5 -13z"/>
    <path d="M4311 4534 c0 -11 3 -14 6 -6 3 7 2 16 -1 19 -3 4 -6 -2 -5 -13z"/>
  </g>
</svg>